<mxfile host="app.diagrams.net" modified="2022-04-15T03:36:57.417Z" agent="5.0 (Windows NT 10.0; Win64; x64) AppleWebKit/537.36 (KHTML, like Gecko) Chrome/100.0.4896.75 Safari/537.36" etag="hcSXxibFVnLhmiPU3T4D" version="17.4.4" type="github" pages="2">
  <diagram id="u-de3FhM9FmhZ07raM_E" name="Page-1">
    <mxGraphModel dx="1422" dy="796" grid="1" gridSize="10" guides="1" tooltips="1" connect="1" arrows="1" fold="1" page="1" pageScale="1" pageWidth="827" pageHeight="1169" math="0" shadow="0">
      <root>
        <mxCell id="0" />
        <mxCell id="1" parent="0" />
        <mxCell id="TLO-3iS-r84SHTYbBu2k-75" value="站内用户" style="swimlane;fontSize=18;fillColor=#f5f5f5;fontColor=#333333;strokeColor=#666666;" vertex="1" parent="1">
          <mxGeometry x="820" y="20" width="280" height="790" as="geometry" />
        </mxCell>
        <mxCell id="TLO-3iS-r84SHTYbBu2k-76" value="" style="ellipse;html=1;shape=startState;fontSize=16;fillColor=#f5f5f5;fontColor=#333333;strokeColor=#666666;" vertex="1" parent="TLO-3iS-r84SHTYbBu2k-75">
          <mxGeometry x="120" y="50" width="30" height="30" as="geometry" />
        </mxCell>
        <mxCell id="TLO-3iS-r84SHTYbBu2k-77" value="" style="edgeStyle=orthogonalEdgeStyle;html=1;verticalAlign=bottom;endArrow=open;endSize=8;rounded=0;fontSize=16;fillColor=#f5f5f5;strokeColor=#666666;" edge="1" parent="TLO-3iS-r84SHTYbBu2k-75" source="TLO-3iS-r84SHTYbBu2k-76">
          <mxGeometry relative="1" as="geometry">
            <mxPoint x="135" y="140" as="targetPoint" />
          </mxGeometry>
        </mxCell>
        <mxCell id="TLO-3iS-r84SHTYbBu2k-78" value="点击投稿" style="rounded=1;whiteSpace=wrap;html=1;arcSize=40;fontSize=16;fillColor=#f5f5f5;fontColor=#333333;strokeColor=#666666;" vertex="1" parent="TLO-3iS-r84SHTYbBu2k-75">
          <mxGeometry x="90" y="115" width="90" height="30" as="geometry" />
        </mxCell>
        <mxCell id="TLO-3iS-r84SHTYbBu2k-79" value="上传视频和封面" style="rounded=1;whiteSpace=wrap;html=1;arcSize=40;fontSize=16;fillColor=#f5f5f5;fontColor=#333333;strokeColor=#666666;" vertex="1" parent="TLO-3iS-r84SHTYbBu2k-75">
          <mxGeometry x="85" y="178" width="100" height="40" as="geometry" />
        </mxCell>
        <mxCell id="TLO-3iS-r84SHTYbBu2k-80" value="点击稿件管理" style="rounded=1;whiteSpace=wrap;html=1;arcSize=40;fontSize=16;fillColor=#f5f5f5;fontColor=#333333;strokeColor=#666666;" vertex="1" parent="TLO-3iS-r84SHTYbBu2k-75">
          <mxGeometry x="85" y="440" width="120" height="40" as="geometry" />
        </mxCell>
        <mxCell id="wgHrEvM6qCBHpzr2Jo3e-7" value="删除/修改/稿件" style="rounded=1;whiteSpace=wrap;html=1;arcSize=40;fontSize=16;fillColor=#f5f5f5;fontColor=#333333;strokeColor=#666666;" vertex="1" parent="TLO-3iS-r84SHTYbBu2k-75">
          <mxGeometry x="60" y="540" width="120" height="40" as="geometry" />
        </mxCell>
        <mxCell id="wgHrEvM6qCBHpzr2Jo3e-12" value="模糊查询稿件" style="rounded=1;whiteSpace=wrap;html=1;arcSize=40;fontSize=16;fillColor=#f5f5f5;fontColor=#333333;strokeColor=#666666;" vertex="1" parent="TLO-3iS-r84SHTYbBu2k-75">
          <mxGeometry x="185" y="600" width="80" height="40" as="geometry" />
        </mxCell>
        <mxCell id="TLO-3iS-r84SHTYbBu2k-83" value="系统" style="swimlane;fontSize=18;fillColor=#f5f5f5;fontColor=#333333;strokeColor=#666666;" vertex="1" parent="1">
          <mxGeometry x="1100" y="20" width="300" height="790" as="geometry" />
        </mxCell>
        <mxCell id="TLO-3iS-r84SHTYbBu2k-84" value="跳转到视频投稿页面" style="rounded=1;whiteSpace=wrap;html=1;arcSize=40;fontSize=16;fillColor=#f5f5f5;fontColor=#333333;strokeColor=#666666;" vertex="1" parent="TLO-3iS-r84SHTYbBu2k-83">
          <mxGeometry x="80" y="110" width="90" height="40" as="geometry" />
        </mxCell>
        <mxCell id="TLO-3iS-r84SHTYbBu2k-85" value="系统检查文件大小和格式是否正确" style="rounded=1;whiteSpace=wrap;html=1;arcSize=40;fontSize=16;fillColor=#f5f5f5;fontColor=#333333;strokeColor=#666666;" vertex="1" parent="TLO-3iS-r84SHTYbBu2k-83">
          <mxGeometry x="80" y="229" width="150" height="50" as="geometry" />
        </mxCell>
        <mxCell id="TLO-3iS-r84SHTYbBu2k-86" value="" style="edgeStyle=orthogonalEdgeStyle;html=1;verticalAlign=bottom;endArrow=open;endSize=8;rounded=0;entryX=0.5;entryY=0;entryDx=0;entryDy=0;fontSize=16;fillColor=#f5f5f5;strokeColor=#666666;" edge="1" parent="TLO-3iS-r84SHTYbBu2k-83" source="TLO-3iS-r84SHTYbBu2k-85" target="TLO-3iS-r84SHTYbBu2k-87">
          <mxGeometry relative="1" as="geometry">
            <mxPoint x="140" y="339" as="targetPoint" />
          </mxGeometry>
        </mxCell>
        <mxCell id="TLO-3iS-r84SHTYbBu2k-87" value="" style="rhombus;whiteSpace=wrap;html=1;fontSize=16;fillColor=#f5f5f5;fontColor=#333333;strokeColor=#666666;" vertex="1" parent="TLO-3iS-r84SHTYbBu2k-83">
          <mxGeometry x="135" y="318" width="40" height="40" as="geometry" />
        </mxCell>
        <mxCell id="TLO-3iS-r84SHTYbBu2k-88" value="yes" style="edgeStyle=orthogonalEdgeStyle;html=1;align=left;verticalAlign=top;endArrow=open;endSize=8;rounded=0;exitX=0;exitY=0.5;exitDx=0;exitDy=0;fontSize=16;fillColor=#f5f5f5;strokeColor=#666666;" edge="1" parent="TLO-3iS-r84SHTYbBu2k-83" source="TLO-3iS-r84SHTYbBu2k-87" target="TLO-3iS-r84SHTYbBu2k-89">
          <mxGeometry x="-0.4286" y="-31" relative="1" as="geometry">
            <mxPoint x="30" y="429" as="targetPoint" />
            <mxPoint x="100" y="359" as="sourcePoint" />
            <Array as="points">
              <mxPoint x="70" y="338" />
            </Array>
            <mxPoint as="offset" />
          </mxGeometry>
        </mxCell>
        <mxCell id="TLO-3iS-r84SHTYbBu2k-89" value="上传到服务器" style="rounded=1;whiteSpace=wrap;html=1;arcSize=40;fontSize=16;fillColor=#f5f5f5;fontColor=#333333;strokeColor=#666666;" vertex="1" parent="TLO-3iS-r84SHTYbBu2k-83">
          <mxGeometry x="15" y="381" width="105" height="30" as="geometry" />
        </mxCell>
        <mxCell id="TLO-3iS-r84SHTYbBu2k-90" value="上传失败" style="rounded=1;whiteSpace=wrap;html=1;arcSize=40;fontSize=16;fillColor=#f5f5f5;fontColor=#333333;strokeColor=#666666;" vertex="1" parent="TLO-3iS-r84SHTYbBu2k-83">
          <mxGeometry x="200" y="380" width="80" height="30" as="geometry" />
        </mxCell>
        <mxCell id="TLO-3iS-r84SHTYbBu2k-91" value="no" style="edgeStyle=orthogonalEdgeStyle;html=1;align=left;verticalAlign=bottom;endArrow=open;endSize=8;rounded=0;entryX=0.5;entryY=0;entryDx=0;entryDy=0;exitX=1;exitY=0.5;exitDx=0;exitDy=0;fontSize=16;fillColor=#f5f5f5;strokeColor=#666666;" edge="1" parent="TLO-3iS-r84SHTYbBu2k-83" source="TLO-3iS-r84SHTYbBu2k-87" target="TLO-3iS-r84SHTYbBu2k-90">
          <mxGeometry x="-1" relative="1" as="geometry">
            <mxPoint x="230" y="398" as="targetPoint" />
            <Array as="points">
              <mxPoint x="240" y="338" />
            </Array>
          </mxGeometry>
        </mxCell>
        <mxCell id="TLO-3iS-r84SHTYbBu2k-92" value="" style="edgeStyle=orthogonalEdgeStyle;html=1;align=left;verticalAlign=bottom;endArrow=open;endSize=8;rounded=0;exitX=0.5;exitY=1;exitDx=0;exitDy=0;startArrow=none;fontSize=16;fillColor=#f5f5f5;strokeColor=#666666;" edge="1" parent="TLO-3iS-r84SHTYbBu2k-83" source="TLO-3iS-r84SHTYbBu2k-95">
          <mxGeometry x="-1" relative="1" as="geometry">
            <mxPoint x="60" y="480" as="targetPoint" />
            <mxPoint x="94" y="477" as="sourcePoint" />
            <Array as="points">
              <mxPoint x="60" y="476" />
            </Array>
          </mxGeometry>
        </mxCell>
        <mxCell id="TLO-3iS-r84SHTYbBu2k-93" value="" style="ellipse;html=1;shape=endState;fontSize=16;fillColor=#f5f5f5;fontColor=#333333;strokeColor=#666666;" vertex="1" parent="TLO-3iS-r84SHTYbBu2k-83">
          <mxGeometry x="225" y="440" width="30" height="30" as="geometry" />
        </mxCell>
        <mxCell id="TLO-3iS-r84SHTYbBu2k-94" value="" style="edgeStyle=orthogonalEdgeStyle;html=1;align=left;verticalAlign=bottom;endArrow=open;endSize=8;rounded=0;entryX=0.5;entryY=0;entryDx=0;entryDy=0;exitX=0.5;exitY=1;exitDx=0;exitDy=0;fontSize=16;fillColor=#f5f5f5;strokeColor=#666666;" edge="1" parent="TLO-3iS-r84SHTYbBu2k-83" source="TLO-3iS-r84SHTYbBu2k-90" target="TLO-3iS-r84SHTYbBu2k-93">
          <mxGeometry x="-1" relative="1" as="geometry">
            <mxPoint x="160" y="440" as="targetPoint" />
            <mxPoint x="180" y="465" as="sourcePoint" />
            <Array as="points" />
          </mxGeometry>
        </mxCell>
        <mxCell id="TLO-3iS-r84SHTYbBu2k-95" value="投稿发布到圈地自萌" style="rounded=1;whiteSpace=wrap;html=1;arcSize=40;fontSize=16;fillColor=#f5f5f5;fontColor=#333333;strokeColor=#666666;" vertex="1" parent="TLO-3iS-r84SHTYbBu2k-83">
          <mxGeometry x="14" y="440" width="106" height="40" as="geometry" />
        </mxCell>
        <mxCell id="TLO-3iS-r84SHTYbBu2k-96" value="" style="edgeStyle=orthogonalEdgeStyle;html=1;align=left;verticalAlign=bottom;endArrow=none;endSize=8;rounded=0;exitX=0.5;exitY=1;exitDx=0;exitDy=0;fontSize=16;fillColor=#f5f5f5;strokeColor=#666666;" edge="1" parent="TLO-3iS-r84SHTYbBu2k-83" source="TLO-3iS-r84SHTYbBu2k-89" target="TLO-3iS-r84SHTYbBu2k-95">
          <mxGeometry x="-1" relative="1" as="geometry">
            <mxPoint x="450" y="530" as="targetPoint" />
            <mxPoint x="450" y="461" as="sourcePoint" />
            <Array as="points" />
          </mxGeometry>
        </mxCell>
        <mxCell id="wgHrEvM6qCBHpzr2Jo3e-2" value="跳转到稿件管理页面" style="rounded=1;whiteSpace=wrap;html=1;arcSize=40;fontSize=16;fillColor=#f5f5f5;fontColor=#333333;strokeColor=#666666;" vertex="1" parent="TLO-3iS-r84SHTYbBu2k-83">
          <mxGeometry x="100" y="500" width="90" height="40" as="geometry" />
        </mxCell>
        <mxCell id="wgHrEvM6qCBHpzr2Jo3e-22" style="edgeStyle=orthogonalEdgeStyle;rounded=0;orthogonalLoop=1;jettySize=auto;html=1;entryX=0.5;entryY=1;entryDx=0;entryDy=0;fontSize=14;endArrow=open;endFill=0;fillColor=#f5f5f5;strokeColor=#666666;" edge="1" parent="TLO-3iS-r84SHTYbBu2k-83" source="wgHrEvM6qCBHpzr2Jo3e-14" target="wgHrEvM6qCBHpzr2Jo3e-20">
          <mxGeometry relative="1" as="geometry" />
        </mxCell>
        <mxCell id="wgHrEvM6qCBHpzr2Jo3e-14" value="自动同步到圈地自萌" style="rounded=1;whiteSpace=wrap;html=1;arcSize=40;fontSize=16;fillColor=#f5f5f5;fontColor=#333333;strokeColor=#666666;" vertex="1" parent="TLO-3iS-r84SHTYbBu2k-83">
          <mxGeometry x="29" y="730" width="106" height="40" as="geometry" />
        </mxCell>
        <mxCell id="wgHrEvM6qCBHpzr2Jo3e-21" style="edgeStyle=orthogonalEdgeStyle;rounded=0;orthogonalLoop=1;jettySize=auto;html=1;entryX=0.5;entryY=0;entryDx=0;entryDy=0;fontSize=14;endArrow=open;endFill=0;fillColor=#f5f5f5;strokeColor=#666666;" edge="1" parent="TLO-3iS-r84SHTYbBu2k-83" source="wgHrEvM6qCBHpzr2Jo3e-16" target="wgHrEvM6qCBHpzr2Jo3e-20">
          <mxGeometry relative="1" as="geometry" />
        </mxCell>
        <mxCell id="wgHrEvM6qCBHpzr2Jo3e-16" value="在本页展示查询到的稿件" style="rounded=1;whiteSpace=wrap;html=1;arcSize=40;fontSize=16;fillColor=#f5f5f5;fontColor=#333333;strokeColor=#666666;" vertex="1" parent="TLO-3iS-r84SHTYbBu2k-83">
          <mxGeometry x="22" y="650" width="118" height="40" as="geometry" />
        </mxCell>
        <mxCell id="wgHrEvM6qCBHpzr2Jo3e-19" value="" style="ellipse;html=1;shape=endState;fontSize=16;fillColor=#f5f5f5;fontColor=#333333;strokeColor=#666666;" vertex="1" parent="TLO-3iS-r84SHTYbBu2k-83">
          <mxGeometry x="240" y="695" width="30" height="30" as="geometry" />
        </mxCell>
        <mxCell id="wgHrEvM6qCBHpzr2Jo3e-23" style="edgeStyle=orthogonalEdgeStyle;rounded=0;orthogonalLoop=1;jettySize=auto;html=1;entryX=0;entryY=0.5;entryDx=0;entryDy=0;fontSize=14;endArrow=open;endFill=0;fillColor=#f5f5f5;strokeColor=#666666;" edge="1" parent="TLO-3iS-r84SHTYbBu2k-83" source="wgHrEvM6qCBHpzr2Jo3e-20" target="wgHrEvM6qCBHpzr2Jo3e-19">
          <mxGeometry relative="1" as="geometry" />
        </mxCell>
        <mxCell id="wgHrEvM6qCBHpzr2Jo3e-20" value="" style="rhombus;whiteSpace=wrap;html=1;fontSize=16;fillColor=#f5f5f5;fontColor=#333333;strokeColor=#666666;" vertex="1" parent="TLO-3iS-r84SHTYbBu2k-83">
          <mxGeometry x="160" y="690" width="40" height="40" as="geometry" />
        </mxCell>
        <mxCell id="TLO-3iS-r84SHTYbBu2k-97" value="" style="edgeStyle=orthogonalEdgeStyle;html=1;verticalAlign=bottom;endArrow=open;endSize=8;rounded=0;entryX=0;entryY=0.5;entryDx=0;entryDy=0;fontSize=16;fillColor=#f5f5f5;strokeColor=#666666;" edge="1" parent="1" source="TLO-3iS-r84SHTYbBu2k-78" target="TLO-3iS-r84SHTYbBu2k-84">
          <mxGeometry relative="1" as="geometry">
            <mxPoint x="925" y="270" as="targetPoint" />
          </mxGeometry>
        </mxCell>
        <mxCell id="TLO-3iS-r84SHTYbBu2k-98" value="" style="edgeStyle=orthogonalEdgeStyle;html=1;verticalAlign=bottom;endArrow=open;endSize=8;rounded=0;entryX=1;entryY=0.5;entryDx=0;entryDy=0;exitX=0.5;exitY=1;exitDx=0;exitDy=0;fontSize=16;fillColor=#f5f5f5;strokeColor=#666666;" edge="1" parent="1" source="TLO-3iS-r84SHTYbBu2k-84" target="TLO-3iS-r84SHTYbBu2k-79">
          <mxGeometry relative="1" as="geometry">
            <mxPoint x="1240" y="270" as="targetPoint" />
            <mxPoint x="1210" y="220" as="sourcePoint" />
            <Array as="points">
              <mxPoint x="1230" y="170" />
              <mxPoint x="1230" y="218" />
            </Array>
          </mxGeometry>
        </mxCell>
        <mxCell id="TLO-3iS-r84SHTYbBu2k-99" value="" style="edgeStyle=orthogonalEdgeStyle;html=1;verticalAlign=bottom;endArrow=open;endSize=8;rounded=0;entryX=0;entryY=0.5;entryDx=0;entryDy=0;fontSize=16;fillColor=#f5f5f5;strokeColor=#666666;" edge="1" parent="1" source="TLO-3iS-r84SHTYbBu2k-79" target="TLO-3iS-r84SHTYbBu2k-85">
          <mxGeometry relative="1" as="geometry">
            <mxPoint x="925" y="339" as="targetPoint" />
            <Array as="points">
              <mxPoint x="925" y="274" />
            </Array>
          </mxGeometry>
        </mxCell>
        <mxCell id="TLO-3iS-r84SHTYbBu2k-100" value="" style="edgeStyle=orthogonalEdgeStyle;html=1;verticalAlign=bottom;endArrow=open;endSize=8;rounded=0;fontSize=16;entryX=1;entryY=0.5;entryDx=0;entryDy=0;fillColor=#f5f5f5;strokeColor=#666666;" edge="1" parent="1" source="TLO-3iS-r84SHTYbBu2k-95" target="TLO-3iS-r84SHTYbBu2k-80">
          <mxGeometry relative="1" as="geometry">
            <mxPoint x="1000" y="570" as="targetPoint" />
          </mxGeometry>
        </mxCell>
        <mxCell id="wgHrEvM6qCBHpzr2Jo3e-3" value="" style="edgeStyle=orthogonalEdgeStyle;html=1;verticalAlign=bottom;endArrow=open;endSize=8;rounded=0;entryX=0;entryY=0.5;entryDx=0;entryDy=0;fontSize=16;exitX=0.45;exitY=1;exitDx=0;exitDy=0;exitPerimeter=0;fillColor=#f5f5f5;strokeColor=#666666;" edge="1" parent="1" target="wgHrEvM6qCBHpzr2Jo3e-2" source="TLO-3iS-r84SHTYbBu2k-80">
          <mxGeometry relative="1" as="geometry">
            <mxPoint x="945" y="685" as="targetPoint" />
            <mxPoint x="1020" y="565" as="sourcePoint" />
            <Array as="points">
              <mxPoint x="959" y="540" />
            </Array>
          </mxGeometry>
        </mxCell>
        <mxCell id="wgHrEvM6qCBHpzr2Jo3e-4" value="" style="edgeStyle=orthogonalEdgeStyle;html=1;verticalAlign=bottom;endArrow=open;endSize=8;rounded=0;exitX=0;exitY=0.5;exitDx=0;exitDy=0;fontSize=16;entryX=1;entryY=0.5;entryDx=0;entryDy=0;startArrow=none;fillColor=#f5f5f5;strokeColor=#666666;" edge="1" parent="1" source="wgHrEvM6qCBHpzr2Jo3e-8" target="wgHrEvM6qCBHpzr2Jo3e-7">
          <mxGeometry relative="1" as="geometry">
            <mxPoint x="1150" y="610" as="targetPoint" />
            <mxPoint x="1235" y="180" as="sourcePoint" />
            <Array as="points" />
          </mxGeometry>
        </mxCell>
        <mxCell id="wgHrEvM6qCBHpzr2Jo3e-8" value="" style="rhombus;whiteSpace=wrap;html=1;fontSize=16;fillColor=#f5f5f5;fontColor=#333333;strokeColor=#666666;" vertex="1" parent="1">
          <mxGeometry x="1100" y="560" width="40" height="40" as="geometry" />
        </mxCell>
        <mxCell id="wgHrEvM6qCBHpzr2Jo3e-9" value="" style="html=1;verticalAlign=bottom;endArrow=open;rounded=0;exitX=0.5;exitY=1;exitDx=0;exitDy=0;fontSize=16;entryX=1;entryY=0.5;entryDx=0;entryDy=0;edgeStyle=orthogonalEdgeStyle;endFill=0;fillColor=#f5f5f5;strokeColor=#666666;" edge="1" parent="1" source="wgHrEvM6qCBHpzr2Jo3e-2" target="wgHrEvM6qCBHpzr2Jo3e-8">
          <mxGeometry relative="1" as="geometry">
            <mxPoint x="1025" y="585" as="targetPoint" />
            <mxPoint x="1245" y="560" as="sourcePoint" />
          </mxGeometry>
        </mxCell>
        <mxCell id="wgHrEvM6qCBHpzr2Jo3e-13" value="" style="edgeStyle=orthogonalEdgeStyle;html=1;verticalAlign=bottom;endArrow=open;endSize=8;rounded=0;exitX=0.5;exitY=1;exitDx=0;exitDy=0;fontSize=16;entryX=1;entryY=0.5;entryDx=0;entryDy=0;endFill=0;fillColor=#f5f5f5;strokeColor=#666666;" edge="1" parent="1" source="wgHrEvM6qCBHpzr2Jo3e-8" target="wgHrEvM6qCBHpzr2Jo3e-12">
          <mxGeometry relative="1" as="geometry">
            <mxPoint x="1180" y="650" as="targetPoint" />
            <mxPoint x="1285" y="630" as="sourcePoint" />
            <Array as="points">
              <mxPoint x="1120" y="640" />
            </Array>
          </mxGeometry>
        </mxCell>
        <mxCell id="wgHrEvM6qCBHpzr2Jo3e-15" value="" style="edgeStyle=orthogonalEdgeStyle;html=1;verticalAlign=bottom;endArrow=open;endSize=8;rounded=0;exitX=0.5;exitY=1;exitDx=0;exitDy=0;fontSize=16;entryX=0;entryY=0.5;entryDx=0;entryDy=0;startArrow=none;fillColor=#f5f5f5;strokeColor=#666666;" edge="1" parent="1" source="wgHrEvM6qCBHpzr2Jo3e-7" target="wgHrEvM6qCBHpzr2Jo3e-14">
          <mxGeometry relative="1" as="geometry">
            <mxPoint x="1010" y="590" as="targetPoint" />
            <mxPoint x="1110" y="590" as="sourcePoint" />
            <Array as="points" />
          </mxGeometry>
        </mxCell>
        <mxCell id="wgHrEvM6qCBHpzr2Jo3e-17" value="" style="edgeStyle=orthogonalEdgeStyle;html=1;verticalAlign=bottom;endArrow=open;endSize=8;rounded=0;fontSize=16;exitX=0.5;exitY=1;exitDx=0;exitDy=0;entryX=0;entryY=0.5;entryDx=0;entryDy=0;fillColor=#f5f5f5;strokeColor=#666666;" edge="1" parent="1" source="wgHrEvM6qCBHpzr2Jo3e-12" target="wgHrEvM6qCBHpzr2Jo3e-16">
          <mxGeometry relative="1" as="geometry">
            <mxPoint x="1130" y="700" as="targetPoint" />
            <mxPoint x="969" y="510" as="sourcePoint" />
            <Array as="points">
              <mxPoint x="1040" y="660" />
              <mxPoint x="1040" y="690" />
            </Array>
          </mxGeometry>
        </mxCell>
      </root>
    </mxGraphModel>
  </diagram>
  <diagram id="7j2bTfX_rTXFhSLOs7mT" name="Page-2">
    <mxGraphModel dx="2249" dy="796" grid="1" gridSize="10" guides="1" tooltips="1" connect="1" arrows="1" fold="1" page="1" pageScale="1" pageWidth="827" pageHeight="1169" math="0" shadow="0">
      <root>
        <mxCell id="0" />
        <mxCell id="1" parent="0" />
        <mxCell id="sm8OMEilD3quk4I2Jw6D-52" value="站内用户" style="swimlane;fontSize=18;fillColor=#f5f5f5;strokeColor=#666666;fontColor=#333333;" vertex="1" parent="1">
          <mxGeometry x="-409" y="130" width="280" height="590" as="geometry" />
        </mxCell>
        <mxCell id="sm8OMEilD3quk4I2Jw6D-53" value="" style="ellipse;html=1;shape=startState;fillColor=#f5f5f5;strokeColor=#666666;fontSize=16;fontColor=#333333;" vertex="1" parent="sm8OMEilD3quk4I2Jw6D-52">
          <mxGeometry x="115" y="52" width="30" height="30" as="geometry" />
        </mxCell>
        <mxCell id="sm8OMEilD3quk4I2Jw6D-54" value="" style="edgeStyle=orthogonalEdgeStyle;html=1;verticalAlign=bottom;endArrow=open;endSize=8;strokeColor=#666666;rounded=0;fontSize=16;entryX=0.5;entryY=0;entryDx=0;entryDy=0;fillColor=#f5f5f5;" edge="1" parent="sm8OMEilD3quk4I2Jw6D-52" source="sm8OMEilD3quk4I2Jw6D-53" target="sm8OMEilD3quk4I2Jw6D-55">
          <mxGeometry relative="1" as="geometry">
            <mxPoint x="135" y="140" as="targetPoint" />
            <Array as="points">
              <mxPoint x="130" y="91" />
              <mxPoint x="130" y="91" />
            </Array>
          </mxGeometry>
        </mxCell>
        <mxCell id="sm8OMEilD3quk4I2Jw6D-55" value="点击我的主页" style="rounded=1;whiteSpace=wrap;html=1;arcSize=40;fillColor=#f5f5f5;strokeColor=#666666;fontSize=16;fontColor=#333333;" vertex="1" parent="sm8OMEilD3quk4I2Jw6D-52">
          <mxGeometry x="80" y="115" width="100" height="30" as="geometry" />
        </mxCell>
        <mxCell id="sm8OMEilD3quk4I2Jw6D-56" value="点击卡片上的关注数或粉丝数" style="rounded=1;whiteSpace=wrap;html=1;arcSize=40;fillColor=#f5f5f5;strokeColor=#666666;fontSize=16;fontColor=#333333;" vertex="1" parent="sm8OMEilD3quk4I2Jw6D-52">
          <mxGeometry x="30" y="313" width="175" height="40" as="geometry" />
        </mxCell>
        <mxCell id="sm8OMEilD3quk4I2Jw6D-57" value="关注/取消关注/移除粉丝" style="rounded=1;whiteSpace=wrap;html=1;arcSize=40;fillColor=#f5f5f5;strokeColor=#666666;fontSize=16;fontColor=#333333;" vertex="1" parent="sm8OMEilD3quk4I2Jw6D-52">
          <mxGeometry x="100" y="413" width="105" height="40" as="geometry" />
        </mxCell>
        <mxCell id="sm8OMEilD3quk4I2Jw6D-58" value="显示关注粉丝明细区域" style="rounded=1;whiteSpace=wrap;html=1;arcSize=40;fillColor=#f5f5f5;strokeColor=#666666;fontSize=16;fontColor=#333333;" vertex="1" parent="sm8OMEilD3quk4I2Jw6D-52">
          <mxGeometry x="360" y="362" width="170" height="50" as="geometry" />
        </mxCell>
        <mxCell id="sm8OMEilD3quk4I2Jw6D-59" value="显示相应操作成功提示" style="rounded=1;whiteSpace=wrap;html=1;arcSize=40;fillColor=#f5f5f5;strokeColor=#666666;fontSize=16;fontColor=#333333;" vertex="1" parent="sm8OMEilD3quk4I2Jw6D-52">
          <mxGeometry x="392.5" y="473" width="105" height="40" as="geometry" />
        </mxCell>
        <mxCell id="sm8OMEilD3quk4I2Jw6D-60" value="" style="ellipse;html=1;shape=endState;fillColor=#f5f5f5;strokeColor=#666666;fontSize=14;fontColor=#333333;" vertex="1" parent="sm8OMEilD3quk4I2Jw6D-52">
          <mxGeometry x="430" y="553" width="30" height="30" as="geometry" />
        </mxCell>
        <mxCell id="sm8OMEilD3quk4I2Jw6D-61" value="" style="edgeStyle=orthogonalEdgeStyle;html=1;verticalAlign=bottom;endArrow=open;endSize=8;strokeColor=#666666;rounded=0;fontSize=14;exitX=0.5;exitY=1;exitDx=0;exitDy=0;entryX=0.5;entryY=0;entryDx=0;entryDy=0;fillColor=#f5f5f5;" edge="1" parent="sm8OMEilD3quk4I2Jw6D-52" source="sm8OMEilD3quk4I2Jw6D-59" target="sm8OMEilD3quk4I2Jw6D-60">
          <mxGeometry relative="1" as="geometry">
            <mxPoint x="295" y="530" as="targetPoint" />
            <mxPoint x="295" y="503" as="sourcePoint" />
            <Array as="points" />
          </mxGeometry>
        </mxCell>
        <mxCell id="sm8OMEilD3quk4I2Jw6D-62" value="" style="edgeStyle=orthogonalEdgeStyle;html=1;verticalAlign=bottom;endArrow=open;endSize=8;strokeColor=#666666;rounded=0;entryX=0;entryY=0.5;entryDx=0;entryDy=0;fontSize=16;fillColor=#f5f5f5;" edge="1" parent="sm8OMEilD3quk4I2Jw6D-52" source="sm8OMEilD3quk4I2Jw6D-56" target="sm8OMEilD3quk4I2Jw6D-58">
          <mxGeometry relative="1" as="geometry">
            <mxPoint x="105" y="452" as="targetPoint" />
            <Array as="points">
              <mxPoint x="105" y="387" />
            </Array>
          </mxGeometry>
        </mxCell>
        <mxCell id="sm8OMEilD3quk4I2Jw6D-63" value="" style="edgeStyle=orthogonalEdgeStyle;html=1;verticalAlign=bottom;endArrow=open;endSize=8;strokeColor=#666666;rounded=0;fontSize=16;exitX=0.5;exitY=1;exitDx=0;exitDy=0;entryX=1;entryY=0.5;entryDx=0;entryDy=0;fillColor=#f5f5f5;" edge="1" parent="sm8OMEilD3quk4I2Jw6D-52" source="sm8OMEilD3quk4I2Jw6D-58" target="sm8OMEilD3quk4I2Jw6D-57">
          <mxGeometry relative="1" as="geometry">
            <mxPoint x="310" y="433" as="targetPoint" />
            <mxPoint x="445" y="427.69000000000005" as="sourcePoint" />
            <Array as="points">
              <mxPoint x="445" y="433" />
              <mxPoint x="205" y="433" />
            </Array>
          </mxGeometry>
        </mxCell>
        <mxCell id="sm8OMEilD3quk4I2Jw6D-64" value="" style="edgeStyle=orthogonalEdgeStyle;html=1;verticalAlign=bottom;endArrow=open;endSize=8;strokeColor=#666666;rounded=0;fontSize=16;exitX=0.5;exitY=1;exitDx=0;exitDy=0;entryX=0;entryY=0.5;entryDx=0;entryDy=0;fillColor=#f5f5f5;" edge="1" parent="sm8OMEilD3quk4I2Jw6D-52" source="sm8OMEilD3quk4I2Jw6D-57" target="sm8OMEilD3quk4I2Jw6D-59">
          <mxGeometry relative="1" as="geometry">
            <mxPoint x="320" y="503" as="targetPoint" />
            <mxPoint x="304" y="603" as="sourcePoint" />
          </mxGeometry>
        </mxCell>
        <mxCell id="sm8OMEilD3quk4I2Jw6D-65" value="点击区域内投稿、喜欢或收藏的视频" style="rounded=1;whiteSpace=wrap;html=1;arcSize=40;fillColor=#f5f5f5;strokeColor=#666666;fontSize=16;fontColor=#333333;" vertex="1" parent="sm8OMEilD3quk4I2Jw6D-52">
          <mxGeometry x="100" y="198" width="160" height="42" as="geometry" />
        </mxCell>
        <mxCell id="sm8OMEilD3quk4I2Jw6D-66" value="系统" style="swimlane;fontSize=18;fillColor=#f5f5f5;strokeColor=#666666;fontColor=#333333;" vertex="1" parent="1">
          <mxGeometry x="-130" y="129" width="300" height="591" as="geometry" />
        </mxCell>
        <mxCell id="sm8OMEilD3quk4I2Jw6D-67" value="&lt;span style=&quot;font-size: 12pt&quot;&gt;获取个人信息，默认显示个性化视频展示区域（投稿、喜欢、收藏）&lt;/span&gt;" style="rounded=1;whiteSpace=wrap;html=1;arcSize=40;fillColor=#f5f5f5;strokeColor=#666666;fontSize=16;fontColor=#333333;" vertex="1" parent="sm8OMEilD3quk4I2Jw6D-66">
          <mxGeometry x="80" y="96" width="170" height="70" as="geometry" />
        </mxCell>
        <mxCell id="sm8OMEilD3quk4I2Jw6D-68" value="" style="shape=line;html=1;strokeWidth=6;strokeColor=#666666;fontSize=18;rotation=90;fillColor=#f5f5f5;fontColor=#333333;" vertex="1" parent="sm8OMEilD3quk4I2Jw6D-66">
          <mxGeometry x="24" y="198" width="61.25" height="10" as="geometry" />
        </mxCell>
        <mxCell id="sm8OMEilD3quk4I2Jw6D-69" value="跳转到相应播放页面" style="rounded=1;whiteSpace=wrap;html=1;arcSize=40;fillColor=#f5f5f5;strokeColor=#666666;fontSize=16;fontColor=#333333;" vertex="1" parent="sm8OMEilD3quk4I2Jw6D-66">
          <mxGeometry x="40" y="261" width="120" height="50" as="geometry" />
        </mxCell>
        <mxCell id="sm8OMEilD3quk4I2Jw6D-70" value="" style="ellipse;html=1;shape=endState;fillColor=#f5f5f5;strokeColor=#666666;fontSize=14;fontColor=#333333;" vertex="1" parent="sm8OMEilD3quk4I2Jw6D-66">
          <mxGeometry x="220" y="271" width="30" height="30" as="geometry" />
        </mxCell>
        <mxCell id="sm8OMEilD3quk4I2Jw6D-71" value="" style="edgeStyle=orthogonalEdgeStyle;html=1;verticalAlign=bottom;endArrow=open;endSize=8;strokeColor=#666666;rounded=0;entryX=0;entryY=0.5;entryDx=0;entryDy=0;fontSize=16;fillColor=#f5f5f5;" edge="1" parent="sm8OMEilD3quk4I2Jw6D-66" target="sm8OMEilD3quk4I2Jw6D-70">
          <mxGeometry relative="1" as="geometry">
            <mxPoint x="340" y="285.5" as="targetPoint" />
            <mxPoint x="160" y="285.5" as="sourcePoint" />
            <Array as="points" />
          </mxGeometry>
        </mxCell>
        <mxCell id="sm8OMEilD3quk4I2Jw6D-72" value="" style="edgeStyle=orthogonalEdgeStyle;html=1;verticalAlign=bottom;endArrow=open;endSize=8;strokeColor=#666666;rounded=0;entryX=0;entryY=0.5;entryDx=0;entryDy=0;fontSize=16;fillColor=#f5f5f5;" edge="1" parent="1" source="sm8OMEilD3quk4I2Jw6D-55" target="sm8OMEilD3quk4I2Jw6D-67">
          <mxGeometry relative="1" as="geometry">
            <mxPoint x="-305" y="380" as="targetPoint" />
            <Array as="points">
              <mxPoint x="-140" y="260" />
            </Array>
          </mxGeometry>
        </mxCell>
        <mxCell id="sm8OMEilD3quk4I2Jw6D-73" value="" style="edgeStyle=orthogonalEdgeStyle;html=1;verticalAlign=bottom;endArrow=open;endSize=8;strokeColor=#666666;rounded=0;fontSize=16;exitX=0.5;exitY=1;exitDx=0;exitDy=0;fillColor=#f5f5f5;" edge="1" parent="1" source="sm8OMEilD3quk4I2Jw6D-67">
          <mxGeometry relative="1" as="geometry">
            <mxPoint x="-70" y="330" as="targetPoint" />
            <mxPoint x="40" y="278" as="sourcePoint" />
            <Array as="points">
              <mxPoint x="35" y="330" />
            </Array>
          </mxGeometry>
        </mxCell>
        <mxCell id="sm8OMEilD3quk4I2Jw6D-74" value="" style="edgeStyle=orthogonalEdgeStyle;html=1;verticalAlign=bottom;endArrow=open;endSize=8;strokeColor=#666666;rounded=0;labelBorderColor=default;fontSize=18;entryX=0.25;entryY=0;entryDx=0;entryDy=0;fillColor=#f5f5f5;" edge="1" parent="1" source="sm8OMEilD3quk4I2Jw6D-68" target="sm8OMEilD3quk4I2Jw6D-56">
          <mxGeometry relative="1" as="geometry">
            <mxPoint x="-250" y="310" as="targetPoint" />
            <Array as="points">
              <mxPoint x="-75" y="310" />
              <mxPoint x="-336" y="310" />
            </Array>
          </mxGeometry>
        </mxCell>
        <mxCell id="sm8OMEilD3quk4I2Jw6D-75" value="" style="edgeStyle=orthogonalEdgeStyle;html=1;verticalAlign=bottom;endArrow=open;endSize=8;strokeColor=#666666;rounded=0;fontSize=16;exitX=0.75;exitY=0.5;exitDx=0;exitDy=0;exitPerimeter=0;fillColor=#f5f5f5;" edge="1" parent="1" source="sm8OMEilD3quk4I2Jw6D-68" target="sm8OMEilD3quk4I2Jw6D-65">
          <mxGeometry relative="1" as="geometry">
            <mxPoint x="-60" y="340" as="targetPoint" />
            <mxPoint x="45" y="304" as="sourcePoint" />
            <Array as="points">
              <mxPoint x="-110" y="347" />
              <mxPoint x="-110" y="347" />
            </Array>
          </mxGeometry>
        </mxCell>
        <mxCell id="sm8OMEilD3quk4I2Jw6D-76" value="" style="edgeStyle=orthogonalEdgeStyle;html=1;verticalAlign=bottom;endArrow=open;endSize=8;strokeColor=#666666;rounded=0;fontSize=16;exitX=0.5;exitY=1;exitDx=0;exitDy=0;fillColor=#f5f5f5;" edge="1" parent="1" source="sm8OMEilD3quk4I2Jw6D-65">
          <mxGeometry relative="1" as="geometry">
            <mxPoint x="-90" y="420" as="targetPoint" />
            <mxPoint x="-65.375" y="357.3125" as="sourcePoint" />
            <Array as="points">
              <mxPoint x="-230" y="420" />
            </Array>
          </mxGeometry>
        </mxCell>
      </root>
    </mxGraphModel>
  </diagram>
</mxfile>
